<?xml version="1.0" encoding="UTF-8" standalone="no"?>
<svg
   xmlns:dc="http://purl.org/dc/elements/1.1/"
   xmlns:cc="http://creativecommons.org/ns#"
   xmlns:rdf="http://www.w3.org/1999/02/22-rdf-syntax-ns#"
   xmlns:svg="http://www.w3.org/2000/svg"
   xmlns="http://www.w3.org/2000/svg"
   xmlns:sodipodi="http://sodipodi.sourceforge.net/DTD/sodipodi-0.dtd"
   xmlns:inkscape="http://www.inkscape.org/namespaces/inkscape"
   sodipodi:docname="polygon-gems.svg"
   inkscape:version="1.0 (4035a4fb49, 2020-05-01)"
   id="svg8"
   version="1.1"
   viewBox="0 0 132.14977 43.424183"
   height="43.424183mm"
   width="132.14977mm">
  <defs
     id="defs2" />
  <sodipodi:namedview
     inkscape:window-maximized="1"
     inkscape:window-y="-9"
     inkscape:window-x="-9"
     inkscape:window-height="1001"
     inkscape:window-width="1920"
     showgrid="false"
     inkscape:document-rotation="0"
     inkscape:current-layer="layer1"
     inkscape:document-units="mm"
     inkscape:cy="194.34645"
     inkscape:cx="-59.746835"
     inkscape:zoom="0.49497475"
     inkscape:pageshadow="2"
     inkscape:pageopacity="0.0"
     borderopacity="1.0"
     bordercolor="#666666"
     pagecolor="#ffffff"
     id="base" />
  <metadata
     id="metadata5">
    <rdf:RDF>
      <cc:Work
         rdf:about="">
        <dc:format>image/svg+xml</dc:format>
        <dc:type
           rdf:resource="http://purl.org/dc/dcmitype/StillImage" />
        <dc:title></dc:title>
      </cc:Work>
    </rdf:RDF>
  </metadata>
  <g
     transform="translate(-39.219374,-123.58668)"
     id="layer1"
     inkscape:groupmode="layer"
     inkscape:label="Layer 1">
    <g
       transform="translate(-5.6853782,-46.132089)"
       style="fill:#ab09cb;fill-opacity:1"
       id="g926">
      <path
         id="path869"
         style="font-style:normal;font-variant:normal;font-weight:bold;font-stretch:normal;font-size:27.8168px;line-height:1.25;font-family:Arial;-inkscape-font-specification:'Arial, Bold';font-variant-ligatures:normal;font-variant-caps:normal;font-variant-numeric:normal;font-variant-east-asian:normal;letter-spacing:0px;fill:#ab09cb;fill-opacity:1;stroke-width:1.40804"
         d="m 169.71875,642.74219 v 12.6582 h 15.17578 v 0.0898 h 7.33008 c 5.46871,0 9.11036,0.17102 10.92187,0.51368 2.46092,0.44548 4.49318,1.55792 6.09961,3.33984 1.60644,1.78187 2.41016,4.04374 2.41016,6.78516 0,2.2274 -0.58204,4.1803 -1.74414,5.85937 -1.12792,1.67912 -2.69826,2.91302 -4.71484,3.70117 -2.01659,0.78814 -6.01665,1.1836 -11.99805,1.1836 h -8.30469 -15.17578 v 41.22265 h 15.17578 v -28.42382 h 9.89453 c 6.87007,-10e-6 12.11526,-0.36049 15.73828,-1.08008 2.666,-0.58258 5.28225,-1.76498 7.84571,-3.54688 2.59764,-1.81616 4.73341,-4.30052 6.4082,-7.45312 1.67479,-3.15263 2.51172,-7.04188 2.51172,-11.66797 0,-5.99683 -1.45217,-10.88099 -4.35742,-14.65039 -2.90526,-3.80369 -6.51175,-6.26958 -10.81836,-7.40039 -2.80272,-0.75389 -8.81842,-1.13086 -18.04688,-1.13086 z"
         transform="scale(0.26458333)" />
      <path
         id="path871"
         style="font-style:normal;font-variant:normal;font-weight:bold;font-stretch:normal;font-size:27.8168px;line-height:1.25;font-family:Arial;-inkscape-font-specification:'Arial, Bold';font-variant-ligatures:normal;font-variant-caps:normal;font-variant-numeric:normal;font-variant-east-asian:normal;letter-spacing:0px;fill:#ab09cb;fill-opacity:1;stroke-width:0.372544"
         d="m 62.647549,180.14988 q 0,-3.04638 0.908853,-5.11356 0.678248,-1.52319 1.844835,-2.73357 1.180153,-1.2104 2.577346,-1.79519 1.8584,-0.78879 4.286531,-0.78879 4.39505,0 7.026655,2.73357 2.645169,2.73358 2.645169,7.60234 0,4.82797 -2.618039,7.56154 -2.618039,2.71998 -6.999526,2.71998 -4.435745,0 -7.053785,-2.70638 -2.618039,-2.71998 -2.618039,-7.47994 z m 4.137315,-0.136 q 0,3.38637 1.559973,5.14076 1.559971,1.74078 3.960971,1.74078 2.401001,0 3.933842,-1.72718 1.546407,-1.74078 1.546407,-5.20876 0,-3.42717 -1.505712,-5.11356 -1.492147,-1.68638 -3.974537,-1.68638 -2.482389,0 -4.001666,1.71358 -1.519278,1.69999 -1.519278,5.14076 z" />
      <path
         id="path873"
         style="font-style:normal;font-variant:normal;font-weight:bold;font-stretch:normal;font-size:27.8168px;line-height:1.25;font-family:Arial;-inkscape-font-specification:'Arial, Bold';font-variant-ligatures:normal;font-variant-caps:normal;font-variant-numeric:normal;font-variant-east-asian:normal;letter-spacing:0px;fill:#ab09cb;fill-opacity:1;stroke-width:0.372544"
         d="m 85.165401,189.99621 v -19.77426 h 4.015232 v 16.41508 h 9.983819 v 3.35918 z" />
      <path
         id="path875"
         style="font-style:normal;font-variant:normal;font-weight:bold;font-stretch:normal;font-size:27.8168px;line-height:1.25;font-family:Arial;-inkscape-font-specification:'Arial, Bold';font-variant-ligatures:normal;font-variant-caps:normal;font-variant-numeric:normal;font-variant-east-asian:normal;letter-spacing:0px;fill:#ab09cb;fill-opacity:1;stroke-width:0.372544"
         d="m 104.71252,189.99621 v -8.39114 l -7.284387,-11.54631 h 4.707037 l 4.67992,7.88794 4.58497,-7.88794 h 4.62565 l -7.31152,11.57351 v 8.36394 z" />
      <path
         id="path877"
         style="font-style:normal;font-variant:normal;font-weight:bold;font-stretch:normal;font-size:27.8168px;line-height:1.25;font-family:Arial;-inkscape-font-specification:'Arial, Bold';font-variant-ligatures:normal;font-variant-caps:normal;font-variant-numeric:normal;font-variant-east-asian:normal;letter-spacing:0px;fill:#ab09cb;fill-opacity:1;stroke-width:0.372544"
         d="m 127.2982,182.66586 v -3.35918 h 8.65446 v 7.94235 q -1.26155,1.22398 -3.66255,2.16238 -2.38743,0.92479 -4.84269,0.92479 -3.11994,0 -5.43955,-1.30559 -2.31962,-1.31919 -3.48621,-3.75357 -1.16657,-2.44798 -1.16657,-5.31756 0,-3.11438 1.30223,-5.53516 1.30223,-2.42078 3.81176,-3.71277 1.91266,-0.99278 4.7613,-0.99278 3.70324,0 5.77868,1.56398 2.089,1.55039 2.68586,4.29757 l -3.9881,0.74799 q -0.42052,-1.46879 -1.58711,-2.31198 -1.15301,-0.85679 -2.88933,-0.85679 -2.6316,0 -4.19158,1.67279 -1.54641,1.67277 -1.54641,4.96395 0,3.54957 1.57355,5.33116 1.57353,1.76798 4.12374,1.76798 1.26155,0 2.52309,-0.48959 1.27511,-0.50319 2.18396,-1.21039 v -2.52958 z" />
      <path
         id="path879"
         style="font-style:normal;font-variant:normal;font-weight:bold;font-stretch:normal;font-size:27.8168px;line-height:1.25;font-family:Arial;-inkscape-font-specification:'Arial, Bold';font-variant-ligatures:normal;font-variant-caps:normal;font-variant-numeric:normal;font-variant-east-asian:normal;letter-spacing:0px;fill:#ab09cb;fill-opacity:1;stroke-width:0.372544"
         d="m 138.82843,180.14988 q 0,-3.04638 0.90885,-5.11356 0.67825,-1.52319 1.84484,-2.73357 1.18015,-1.2104 2.57734,-1.79519 1.8584,-0.78879 4.28654,-0.78879 4.39505,0 7.02665,2.73357 2.64517,2.73358 2.64517,7.60234 0,4.82797 -2.61804,7.56154 -2.61804,2.71998 -6.99952,2.71998 -4.43575,0 -7.05379,-2.70638 -2.61804,-2.71998 -2.61804,-7.47994 z m 4.13732,-0.136 q 0,3.38637 1.55997,5.14076 1.55997,1.74078 3.96097,1.74078 2.401,0 3.93385,-1.72718 1.5464,-1.74078 1.5464,-5.20876 0,-3.42717 -1.50572,-5.11356 -1.49214,-1.68638 -3.97453,-1.68638 -2.48239,0 -4.00166,1.71358 -1.51928,1.69999 -1.51928,5.14076 z" />
      <path
         id="path881"
         style="font-style:normal;font-variant:normal;font-weight:bold;font-stretch:normal;font-size:27.8168px;line-height:1.25;font-family:Arial;-inkscape-font-specification:'Arial, Bold';font-variant-ligatures:normal;font-variant-caps:normal;font-variant-numeric:normal;font-variant-east-asian:normal;letter-spacing:0px;fill:#ab09cb;fill-opacity:1;stroke-width:0.372544"
         d="m 161.27846,189.99621 v -19.93745 h 3.90671 l 8.13899,13.3143 v -13.3143 h 3.73036 v 19.93745 h -4.0288 l -8.0169,-13.00151 v 13.00151 z" />
    </g>
    <g
       transform="translate(-5.6853782,-46.132089)"
       style="fill:#ebff06;fill-opacity:1"
       id="g917">
      <path
         id="path884"
         style="font-style:normal;font-variant:normal;font-weight:bold;font-stretch:normal;font-size:12.9987px;line-height:1.25;font-family:Arial;-inkscape-font-specification:'Arial, Bold';font-variant-ligatures:normal;font-variant-caps:normal;font-variant-numeric:normal;font-variant-east-asian:normal;letter-spacing:0px;fill:#ebff06;fill-opacity:1;stroke-width:0.174088"
         d="m 121.01492,207.60796 v -1.56771 h 4.0494 v 3.70666 q -0.59027,0.57123 -1.71369,1.00918 -1.11708,0.43159 -2.26589,0.43159 -1.45982,0 -2.54516,-0.60931 -1.08534,-0.61566 -1.63118,-1.75178 -0.54584,-1.14246 -0.54584,-2.48168 0,-1.45347 0.60931,-2.58324 0.60931,-1.12977 1.78351,-1.73274 0.89493,-0.46333 2.22781,-0.46333 1.73273,0 2.70383,0.72991 0.97744,0.72356 1.25671,2.00565 l -1.86603,0.34909 q -0.19675,-0.68548 -0.7426,-1.07899 -0.53949,-0.39987 -1.35191,-0.39987 -1.23133,0 -1.96123,0.78069 -0.72356,0.78068 -0.72356,2.31666 0,1.65657 0.73625,2.48803 0.73626,0.82512 1.9295,0.82512 0.59027,0 1.18054,-0.2285 0.59662,-0.23484 1.02187,-0.56488 v -1.18055 z" />
      <path
         id="path886"
         style="font-style:normal;font-variant:normal;font-weight:bold;font-stretch:normal;font-size:12.9987px;line-height:1.25;font-family:Arial;-inkscape-font-specification:'Arial, Bold';font-variant-ligatures:normal;font-variant-caps:normal;font-variant-numeric:normal;font-variant-east-asian:normal;letter-spacing:0px;fill:#ebff06;fill-opacity:1;stroke-width:0.65797"
         d="m 486.78516,762.42188 v 5.94921 h 7.10156 2.14648 16.82813 v -5.94921 z m 9.24804,13.74609 v 0.008 h -9.24804 v 21.41406 h 26.74804 v -5.92578 h -19.64648 v -9.57031 h 17.6543 v -5.92578 z"
         transform="scale(0.26458333)" />
      <path
         id="path888"
         style="font-style:normal;font-variant:normal;font-weight:bold;font-stretch:normal;font-size:12.9987px;line-height:1.25;font-family:Arial;-inkscape-font-specification:'Arial, Bold';font-variant-ligatures:normal;font-variant-caps:normal;font-variant-numeric:normal;font-variant-east-asian:normal;letter-spacing:0px;fill:#ebff06;fill-opacity:1;stroke-width:0.174088"
         d="m 139.59073,211.02901 v -9.30474 h 2.81173 l 1.68831,6.34702 1.66926,-6.34702 h 2.81808 v 9.30474 h -1.74543 v -7.32447 l -1.84698,7.32447 h -1.8089 l -1.84064,-7.32447 v 7.32447 z" />
      <path
         id="path890"
         style="font-style:normal;font-variant:normal;font-weight:bold;font-stretch:normal;font-size:12.9987px;line-height:1.25;font-family:Arial;-inkscape-font-specification:'Arial, Bold';font-variant-ligatures:normal;font-variant-caps:normal;font-variant-numeric:normal;font-variant-east-asian:normal;letter-spacing:0px;fill:#ebff06;fill-opacity:1;stroke-width:0.174088"
         d="m 151.98532,208.00148 1.82794,-0.17772 q 0.16503,0.92032 0.66644,1.35192 0.50776,0.43159 1.36461,0.43159 0.90763,0 1.36461,-0.38082 0.46333,-0.38717 0.46333,-0.90127 0,-0.33005 -0.19675,-0.55854 -0.19041,-0.23484 -0.67279,-0.40621 -0.33004,-0.11425 -1.50424,-0.40621 -1.51059,-0.37448 -2.11991,-0.92032 -0.85685,-0.76799 -0.85685,-1.87237 0,-0.71087 0.39987,-1.32653 0.40621,-0.62201 1.1615,-0.9457 0.76164,-0.3237 1.83429,-0.3237 1.75178,0 2.63401,0.76799 0.88859,0.76799 0.93302,2.05009 l -1.87872,0.0825 q -0.12059,-0.71722 -0.52046,-1.02822 -0.39351,-0.31735 -1.18689,-0.31735 -0.81877,0 -1.2821,0.33639 -0.29831,0.2158 -0.29831,0.57758 0,0.33004 0.27927,0.56488 0.35543,0.29831 1.72639,0.62201 1.37096,0.3237 2.0247,0.67279 0.66009,0.34274 1.02822,0.9457 0.37447,0.59662 0.37447,1.47886 0,0.79972 -0.44429,1.4979 -0.44429,0.69817 -1.25671,1.04091 -0.81242,0.33639 -2.0247,0.33639 -1.76447,0 -2.71018,-0.81242 -0.9457,-0.81877 -1.12977,-2.38013 z" />
    </g>
    <g
       transform="matrix(1,0,0,0.80748171,-3.6688782,-31.134366)"
       id="g1023">
      <path
         id="path943"
         style="font-variation-settings:normal;opacity:1;vector-effect:none;fill:#ffffff;fill-opacity:1;stroke-width:0.14178;stroke-linecap:butt;stroke-linejoin:miter;stroke-miterlimit:4;stroke-dasharray:none;stroke-dashoffset:0;stroke-opacity:1;stop-color:#000000;stop-opacity:1"
         d="m 69.233995,243.64699 a 1.6043653,1.7396642 0 0 1 -1.604368,1.73966 1.6043653,1.7396642 0 0 1 -1.604362,-1.73966 1.6043653,1.7396642 0 0 1 1.604362,-1.73967 1.6043653,1.7396642 0 0 1 1.604368,1.73967 z" />
      <path
         id="rect948"
         style="fill:#ffffff;fill-opacity:1;stroke-width:0.254086"
         d="m 67.771451,243.17729 h 37.055869 v 0.84768 H 67.771451 Z" />
      <path
         d="m 104.03648,243.71979 9.18299,-22.1924 0.79084,0.30518 -9.18299,22.1924 z"
         style="fill:#ffffff;fill-opacity:1;stroke-width:0.254086"
         id="path960"
         sodipodi:nodetypes="ccccc" />
      <path
         d="m 113.21947,221.52739 h 44.04843 v 0.84768 h -44.04843 z"
         style="fill:#ffffff;fill-opacity:1;stroke-width:0.277024"
         id="path962" />
      <path
         d="m 159.18981,221.57274 a 1.6043646,1.7396679 0 0 1 -1.60437,1.73966 1.6043646,1.7396679 0 0 1 -1.60436,-1.73966 1.6043646,1.7396679 0 0 1 1.60436,-1.73967 1.6043646,1.7396679 0 0 1 1.60437,1.73967 z"
         style="fill:#ffffff;fill-opacity:1;stroke-width:0.206732"
         id="path943-2" />
    </g>
  </g>
</svg>
